<svg  viewBox="0 0 20 20" fill="none" xmlns="http://www.w3.org/2000/svg">
<path d="M17.5006 9.8679C15.2211 11.1867 12.6334 11.8791 9.99998 11.875C7.36696 11.8791 4.77968 11.1869 2.50049 9.86856M9.06248 9.375H10.9375M13.125 5.625V4.375C13.125 4.04348 12.9933 3.72554 12.7589 3.49112C12.5244 3.2567 12.2065 3.125 11.875 3.125H8.12498C7.79346 3.125 7.47551 3.2567 7.24109 3.49112C7.00667 3.72554 6.87498 4.04348 6.87498 4.375V5.625M3.12559 5.625H16.8756C17.2208 5.625 17.5006 5.90483 17.5006 6.25V16.25C17.5006 16.5952 17.2208 16.875 16.8756 16.875H3.12559C2.78041 16.875 2.50059 16.5952 2.50059 16.25V6.25C2.50059 5.90483 2.78041 5.625 3.12559 5.625Z" stroke="currentColor" stroke-linecap="round" stroke-linejoin="round"/>
</svg>
